<svg width="26" height="26" viewBox="0 0 26 26"  xmlns="http://www.w3.org/2000/svg">
<path fill-rule="evenodd" clip-rule="evenodd" d="M10.75 4.55C10.85 4.85 11.15 5 11.45 5H15.5C15.8 5 16.1 4.85 16.2 4.55L17.8 1.6C17.9 1.3 17.7 1 17.4 1H9.6C9.3 1 9.1 1.3 9.25 1.55L10.75 4.55V4.55ZM15.85 7.35H11.15C7.2 7.35 4 10.6 4 14.6V22.6C4 23.9 5.05 25 6.4 25H20.6C21.9 25 23 23.9 23 22.6V14.6C23 10.6 19.75 7.35 15.85 7.35V7.35ZM14.7 20.85V22.2C14.7 22.45 14.45 22.6 14.2 22.6H12.6C12.35 22.6 12.3 22.45 12.3 22.2V20.9C11.1 20.65 10.1 20.15 9.85 19.9C9.55 19.6 9.45 19.35 9.7 19L10.2 18.2C10.3 18 10.55 17.9 10.8 17.9C10.95 17.9 11.1 17.95 11.2 18H11.25C12.05 18.5 12.75 18.7 13.25 18.7C13.8 18.7 14.25 18.4 14.25 18.1C14.25 17.85 14.1 17.45 12.6 16.95C11.25 16.45 9.6 15.65 9.6 13.8C9.6 12.7 10.3 11.45 12.3 11.05V9.85C12.3 9.6 12.4 9.45 12.6 9.45H14.2C14.45 9.45 14.7 9.6 14.7 9.85V11C15.5 11.2 16.35 11.6 16.65 11.8C16.8 11.9 16.9 12.1 16.95 12.3C17 12.5 16.9 12.7 16.8 12.8L16.1 13.5C15.95 13.7 15.65 13.85 15.45 13.85C15.35 13.85 15.2 13.8 15.1 13.75C14.3 13.3 13.65 13.05 13.2 13.05C12.55 13.05 12.25 13.35 12.25 13.55C12.25 13.85 12.4 14.15 13.75 14.65C15.4 15.2 17.25 16.1 17.25 18C17.3 19.3 16.25 20.45 14.7 20.85V20.85Z" fill="#F2F2F2"/>
</svg>
